<svg width="151" height="44" viewBox="0 0 151 44" fill="none" xmlns="http://www.w3.org/2000/svg">
<g clip-path="url(#clip0_1_279)">
<path d="M56.0727 10.9674V23.3826H43.3699V12.5706C43.3699 11.682 42.6276 10.9612 41.7124 10.9612H37.412V40.6818C37.412 41.5704 38.1544 42.2912 39.0695 42.2912H43.3699V28.4282H56.0791V40.6756C56.0663 41.5642 56.7958 42.2974 57.7109 42.3099H57.7365H62.0369V12.5706C62.0369 11.682 61.2946 10.9612 60.3795 10.9612H56.0727V10.9674ZM81.2991 18.7347V33.6292C81.3119 34.9838 80.5823 36.2452 79.3793 36.9411C76.0132 38.8301 72.5255 36.4627 72.5255 33.3558V20.344C72.5255 19.4555 71.7832 18.7347 70.8681 18.7347H66.5677V33.8901C66.5805 38.7742 70.6505 42.7262 75.6804 42.751H78.125C83.1613 42.7386 87.2441 38.7742 87.2569 33.8839V20.344C87.2569 19.4555 86.5146 18.7347 85.5995 18.7347H81.2991Z" fill="#BDBDBF"/>
<path d="M146.36 42.3099H150.66V21.2078C150.66 20.3192 149.918 19.5984 149.003 19.5984H144.702V40.6881C144.696 41.5766 145.432 42.3037 146.347 42.3099H146.36Z" fill="#BDBDBF"/>
<path d="M150.752 15.3778C151.454 13.7322 150.65 11.8456 148.955 11.164C147.26 10.4824 145.317 11.2638 144.615 12.9094C143.913 14.5549 144.718 16.4415 146.413 17.1231C148.108 17.8047 150.05 17.0233 150.752 15.3778Z" fill="#BDBDBF"/>
<path d="M102.627 18.7222C96.3881 18.7222 91.2814 23.0532 91.2814 29.1117V32.3863C91.2814 38.4448 96.3881 42.751 102.627 42.751C108.867 42.751 113.974 38.4448 113.974 32.3863V29.1117C113.98 23.0532 108.873 18.7222 102.627 18.7222ZM107.99 32.7778C107.99 35.6424 105.578 37.55 102.621 37.55C99.6646 37.55 97.2584 35.6424 97.2584 32.7778V28.6891C97.2584 25.8246 99.671 23.9169 102.621 23.9169C105.571 23.9169 107.99 25.8246 107.99 28.6891V32.7778Z" fill="#BDBDBF"/>
<path d="M129.346 18.7222C127.477 18.7097 125.634 19.1199 123.951 19.909V12.6016C123.951 11.713 123.209 10.9922 122.294 10.9922H117.993V32.3863C117.993 38.4448 123.1 42.751 129.339 42.751C135.579 42.751 140.686 38.4448 140.686 32.3863V29.1117C140.692 23.0532 135.598 18.7222 129.346 18.7222ZM134.715 32.7778C134.715 35.6424 132.302 37.55 129.346 37.55C126.396 37.55 123.983 35.6424 123.983 32.7778V28.6891C123.983 25.8246 126.396 23.9169 129.346 23.9169C132.296 23.9169 134.715 25.8246 134.715 28.6891V32.7778Z" fill="#BDBDBF"/>
<path d="M19.4023 13.5337C19.4023 7.22042 16.2346 1.78334 13.8221 0.0186161C13.8221 0.0186161 13.6365 -0.0808049 13.6557 0.173961C13.4573 12.3717 7.0387 15.6774 3.51263 20.1265C-4.62739 30.4042 2.93669 41.6698 10.6544 43.7514C14.9547 44.9196 9.65605 41.6884 8.97131 34.8719C8.13299 26.6448 19.4023 20.3564 19.4023 13.5337Z" fill="#BDBDBF"/>
<path d="M23.1033 17.6906C23.0521 17.6596 22.9817 17.6347 22.9369 17.7155C22.8026 19.2503 21.1899 22.5312 19.1421 25.5511C12.1988 35.7791 16.1536 40.7128 18.3806 43.3661C19.6733 44.9009 18.3806 43.3661 21.6059 41.794C25.5927 39.4452 28.178 35.3814 28.562 30.8701C29.1955 23.6 24.7032 19.0204 23.1033 17.6906Z" fill="#BDBDBF"/>
</g>
<defs>
<clipPath id="clip0_1_279">
<rect width="151" height="44" fill="white"/>
</clipPath>
</defs>
</svg>
