<svg width="124" height="43" viewBox="0 0 124 43" fill="none" xmlns="http://www.w3.org/2000/svg">
<path d="M124.002 10.1813H117.551L113.818 25.7146L113.295 27.8463C112.934 27.9431 112.574 28.0398 112.214 28.1048C111.559 28.2337 110.872 28.2983 110.152 28.2983C109.333 28.2983 108.678 28.1694 108.187 27.9431C107.728 27.7171 107.368 27.3945 107.172 26.942C106.975 26.522 106.909 26.0054 106.942 25.4243C106.975 24.8431 107.106 24.1969 107.27 23.5517L109.234 15.4775L110.511 10.117H103.93L100.95 22.5175C100.59 24.0027 100.393 25.424 100.328 26.7806C100.262 28.1366 100.492 29.2994 100.95 30.3651C101.409 31.3985 102.227 32.2057 103.34 32.8192C104.454 33.4329 106.058 33.7229 108.088 33.7229C109.497 33.7229 110.741 33.5945 111.789 33.368C111.821 33.368 111.887 33.336 111.92 33.336C111.625 34.6275 111.035 35.6606 110.118 36.4685C109.169 37.2759 107.793 37.6957 105.96 37.6957C105.174 37.6957 104.454 37.6634 103.799 37.567L102.522 42.831C103.373 42.9278 104.323 42.9924 105.37 42.9924C107.335 42.9924 109.038 42.7664 110.511 42.3462C111.985 41.8939 113.229 41.2484 114.309 40.3439C115.357 39.4396 116.241 38.3094 116.961 36.9856C117.682 35.6293 118.238 34.0463 118.664 32.1734L123.117 13.7013L124.002 10.1813ZM96.9883 23.4538C96.5952 25.0686 96.4642 26.7155 96.6279 28.3303C96.7916 29.9772 97.4466 32.4638 98.0688 33.7232H91.8475C91.0945 32.4642 91.1275 31.8506 90.9639 31.4631C90.145 32.1091 89.2613 32.658 88.279 33.0779C87.2967 33.4979 86.2159 33.7239 84.9717 33.7239C83.5308 33.7239 82.2868 33.4654 81.2718 32.9811C80.2567 32.497 79.4053 31.8188 78.7503 30.9788C78.0951 30.1389 77.6373 29.17 77.3419 28.0398C77.0473 26.9095 76.9164 25.7146 76.9164 24.4232C76.9164 22.4527 77.2767 20.6123 77.9647 18.8686C78.6846 17.1247 79.6669 15.6064 80.9117 14.315C82.1559 13.0233 85.2011 10.1493 90.1779 10.1493H100.165L96.9883 23.4538ZM92.437 15.5419C89.4248 15.5419 88.8678 15.5419 87.624 16.1558C86.7399 16.6078 86.0192 17.2861 85.3972 18.061C84.7753 18.8358 84.2512 19.7401 83.8911 20.7738C83.531 21.8072 83.3344 22.8727 83.3344 23.9709C83.3344 25.3272 83.564 26.4249 84.0221 27.2323C84.4801 28.0398 85.3318 28.4272 86.576 28.4272C87.2312 28.4272 87.8527 28.2983 88.3772 28.0398C88.9007 27.7812 89.49 27.362 90.0797 26.7483C90.1454 26.038 90.2434 25.2949 90.3744 24.5205C90.5051 23.7449 90.669 23.0023 90.8002 22.3563L92.437 15.5419ZM75.1484 19.5141C75.1484 21.6132 74.788 23.5184 74.1003 25.2624C73.4129 27.0061 72.4306 28.4918 71.1861 29.7514C69.9416 31.0111 68.4685 31.9797 66.733 32.6905C64.9977 33.4003 63.1313 33.7557 61.1012 33.7557C60.1188 33.7557 59.1365 33.6589 58.1212 33.4974L56.1571 41.2802H49.7061L57.2044 10.2131H65.8159C67.4537 10.2131 68.8611 10.4716 70.0071 10.9554C71.1858 11.4397 72.1354 12.1183 72.9213 12.9582C73.6745 13.7979 74.2308 14.7988 74.5909 15.9291C74.9847 17.0273 75.1484 18.2224 75.1484 19.5141ZM59.3329 28.3303C59.8237 28.4592 60.4462 28.4918 61.1666 28.4918C62.3127 28.4918 63.328 28.2978 64.2771 27.8778C65.1937 27.4581 66.0126 26.8767 66.6673 26.1343C67.3225 25.3915 67.8133 24.4872 68.2064 23.4538C68.5665 22.4199 68.7631 21.2576 68.7631 19.9984C68.7631 18.7708 68.501 17.7053 67.9445 16.8654C67.3877 15.9939 66.4386 15.5416 65.0635 15.5416H62.5091L59.3329 28.3303ZM45.7773 28.3303C44.9584 28.3303 44.3041 28.2012 43.8126 27.9752C43.354 27.7492 42.9937 27.4263 42.7975 26.9738C42.6009 26.5541 42.5354 26.0375 42.5684 25.4561C42.6009 24.8747 42.7318 24.2287 42.8955 23.583L44.8599 15.5096H52.1945L53.5372 10.1488H46.1696L47.8721 3.36685L40.9958 4.43207L36.6409 22.5816C36.2806 24.0668 36.0842 25.4884 36.0187 26.8442C35.953 28.2005 36.1824 29.3638 36.6409 30.429C37.0992 31.4624 37.9179 32.2696 39.0312 32.8832C40.1444 33.4969 41.749 33.7873 43.7791 33.7873C45.1873 33.7873 46.4312 33.6584 47.4793 33.4321C47.5775 33.3993 47.7412 33.3673 47.8391 33.3353L49.1818 27.8128C48.7232 27.9742 48.2649 28.0716 47.8391 28.1354C47.1852 28.2655 46.4972 28.3303 45.7773 28.3303ZM29.3728 10.1813L23.6752 33.7555H30.1257L35.7903 10.1813H29.3728ZM36.478 7.46824L37.4603 3.36685H31.0098L30.0275 7.46824H36.478ZM15.0964 10.2131C16.4716 10.2131 17.6831 10.4716 18.6981 10.9554C19.7132 11.4397 20.5318 12.0857 21.2193 12.9257C21.8743 13.7656 22.3653 14.7345 22.6927 15.8324C23.02 16.9299 23.1837 18.1253 23.1837 19.417C23.1837 21.387 22.8236 23.2278 22.0704 25.0038C21.3173 26.7478 20.3349 28.2978 19.0582 29.5893C17.7813 30.881 16.2749 31.9149 14.5397 32.6575C12.8042 33.4001 10.9377 33.7875 8.90784 33.7875C8.6457 33.7875 8.1874 33.7875 7.53268 33.7555C6.87771 33.7555 6.12478 33.6907 5.30614 33.5615C4.45475 33.4326 3.57063 33.2709 2.65378 33.0452C1.73883 32.8257 0.849887 32.5118 0.00166321 32.1086L7.49969 1.04172L14.2123 0.0078125L11.56 11.0198C12.1492 10.7617 12.6732 10.5678 13.2627 10.4389C13.8192 10.2779 14.4415 10.2131 15.0964 10.2131ZM9.46435 28.4918C10.4794 28.4918 11.429 28.2655 12.3131 27.7492C13.209 27.2594 13.9989 26.6011 14.6379 25.8115C15.2928 25.0038 15.8166 24.0673 16.177 23.0659C16.5371 22.0325 16.7335 20.9673 16.7335 19.8693C16.7335 18.5127 16.5043 17.4475 16.0458 16.6721C15.5875 15.897 14.6379 15.5419 13.3937 15.5419C13.0006 15.5419 12.575 15.5744 11.92 15.7358C11.2651 15.8647 10.7086 16.1881 10.1848 16.6399L7.36875 28.3626C8.22013 28.4918 8.48202 28.5238 8.71142 28.5238C8.8751 28.4918 9.13699 28.4918 9.46435 28.4918Z" fill="#BDBDBF"/>
</svg>
