<svg width="154" height="32" viewBox="0 0 154 32" fill="none" xmlns="http://www.w3.org/2000/svg">
<path d="M81.8925 28.3557V17.6443C81.8925 15.0079 80.8448 13.6897 78.2266 13.6897C77.179 13.6897 75.9573 13.8548 75.2586 14.019V29.6739C75.2586 30.1683 74.7348 30.6628 74.2109 30.6628H70.1952C69.6714 30.6628 69.1476 30.1683 69.1476 29.6739V11.3827C69.1476 10.7231 69.6714 10.2296 70.1952 10.0645C72.8144 9.24073 75.4326 8.7463 78.2257 8.7463C84.5107 8.7463 88.0026 11.8771 88.0026 17.6451V29.839C88.0026 30.3334 87.4788 30.8279 86.9549 30.8279H84.5107C82.9402 30.827 81.8925 29.6739 81.8925 28.3557ZM97.6055 21.929L97.4306 23.4123C97.4306 25.39 98.8271 26.5431 101.096 26.5431C102.842 26.5431 104.413 26.0487 106.16 25.2249C106.335 25.2249 106.509 25.0598 106.684 25.0598C107.032 25.0598 107.207 25.2249 107.382 25.3892C107.557 25.5542 107.906 26.0487 107.906 26.0487C108.255 26.5431 108.605 27.2018 108.605 27.6962C108.605 28.5199 108.081 29.3437 107.383 29.6739C105.463 30.6628 103.194 31.1572 100.749 31.1572C97.9562 31.1572 95.686 30.4977 93.9405 29.1795C92.1951 27.6962 91.1474 25.7193 91.1474 23.2472V16.8205C91.1474 11.712 94.6393 8.5812 100.575 8.5812C106.337 8.5812 109.653 11.5478 109.653 16.8205V20.7751C109.653 21.2695 109.13 21.7639 108.606 21.7639H97.6073L97.6055 21.929ZM97.4306 18.3038H104.064V16.6563C104.064 14.6786 102.843 13.3604 100.747 13.3604C98.6522 13.3604 97.4306 14.5135 97.4306 16.6563V18.3038ZM141.95 21.929L141.775 23.4123C141.775 25.39 143.172 26.5431 145.441 26.5431C147.187 26.5431 148.758 26.0487 150.505 25.2249C150.68 25.2249 150.854 25.0598 151.028 25.0598C151.377 25.0598 151.552 25.2249 151.727 25.3892C151.902 25.5542 152.251 26.0487 152.251 26.0487C152.6 26.5431 152.95 27.2018 152.95 27.6962C152.95 28.5199 152.426 29.3437 151.728 29.6739C149.808 30.6628 147.538 31.1572 145.094 31.1572C142.301 31.1572 140.031 30.4977 138.285 29.1795C136.54 27.6962 135.492 25.7193 135.492 23.2472V16.8205C135.492 11.712 138.984 8.5812 144.92 8.5812C150.681 8.5812 153.998 11.5478 153.998 16.8205V20.7751C153.998 21.2695 153.474 21.7639 152.951 21.7639H141.952V21.929H141.95ZM141.775 18.3038H148.409V16.6563C148.409 14.6786 147.188 13.3604 145.092 13.3604C142.997 13.3604 141.775 14.5135 141.775 16.6563V18.3038ZM39.1192 30.827H41.5634C42.0872 30.827 42.611 30.3326 42.611 29.8381V17.6443C42.611 12.0413 39.4681 8.74543 34.2307 8.74543C32.6592 8.74543 30.9138 9.07476 29.8661 9.40496V3.30759C29.8661 1.9894 28.6445 0.835449 27.247 0.835449H24.8028C24.2789 0.835449 23.7551 1.32988 23.7551 1.8243V29.8381C23.7551 30.3326 24.2789 30.827 24.8028 30.827H28.8185C29.3423 30.827 29.8661 30.3326 29.8661 29.8381V14.3484C30.7389 14.019 31.9614 13.8539 32.8342 13.8539C35.4533 13.8539 36.5 15.007 36.5 17.8085V28.52C36.6749 29.6739 37.7226 30.827 39.1192 30.827ZM65.4817 16.9847V23.0821C65.4817 28.1906 61.8159 31.3214 55.7048 31.3214C49.7688 31.3214 45.928 28.1906 45.928 23.0821V16.9847C45.928 11.8762 49.5938 8.74543 55.7048 8.74543C61.8159 8.74543 65.4817 11.8771 65.4817 16.9847ZM59.3716 16.9847C59.3716 15.007 58.15 13.6888 55.8798 13.6888C53.6095 13.6888 52.3879 14.8419 52.3879 16.9847V23.0821C52.3879 25.0598 53.6095 26.2129 55.8798 26.2129C58.15 26.2129 59.3716 25.0598 59.3716 23.0821V16.9847ZM20.4391 14.1841C20.4391 19.4578 16.2494 23.083 10.6622 23.083C9.26564 23.083 8.04307 22.9179 6.82142 22.4234V29.839C6.82142 30.3334 6.2976 30.8279 5.77377 30.8279H1.75807C1.23425 30.8279 0.710419 30.3334 0.710419 29.839V3.63779C0.710419 2.97826 1.23425 2.4847 1.75807 2.3196C4.37721 1.49585 6.99542 1.00142 9.78855 1.00142C16.0735 1.00142 20.4382 4.62664 20.4382 10.2296C20.4391 10.2287 20.4391 14.1841 20.4391 14.1841ZM14.1541 9.89938C14.1541 7.26301 12.2337 5.94483 9.61455 5.94483C8.04307 5.94483 6.99541 6.43926 6.99541 6.43926V17.3149C8.04307 17.8094 8.5669 17.9745 9.78855 17.9745C12.4077 17.9745 14.3281 16.4912 14.3281 14.0199V9.90025H14.1541V9.89938ZM133.221 14.1841C133.221 19.4578 129.031 23.083 123.444 23.083C122.048 23.083 120.825 22.9179 119.603 22.4234V29.839C119.603 30.3334 119.08 30.8279 118.556 30.8279H114.54C114.016 30.8279 113.492 30.3334 113.492 29.839V3.63779C113.492 2.97826 114.016 2.4847 114.54 2.3196C117.159 1.49585 119.777 1.00142 122.571 1.00142C128.856 1.00142 133.22 4.62664 133.22 10.2296C133.221 10.2287 133.221 14.1841 133.221 14.1841ZM126.936 9.89938C126.936 7.26301 125.016 5.94483 122.397 5.94483C120.825 5.94483 119.777 6.43926 119.777 6.43926V17.3149C120.825 17.8094 121.349 17.9745 122.571 17.9745C125.19 17.9745 127.11 16.4912 127.11 14.0199V9.90025H126.936V9.89938Z" fill="#BDBDBF"/>
</svg>
