<svg width="196" height="44" viewBox="0 0 196 44" fill="none" xmlns="http://www.w3.org/2000/svg">
<g clip-path="url(#clip0_1_288)">
<path d="M118.277 31.0453H90.9369C88.3936 31.0453 85.6737 28.8696 85.6737 25.5632V21.7943C85.6737 20.2867 86.5391 19.9099 88.4289 19.9099H117.341C118.454 19.9099 119.407 20.835 119.407 21.9142C119.407 22.9935 118.454 23.9186 117.341 23.9186H89.8065V25.9744C89.8065 26.5226 90.3717 27.0194 91.1488 27.0194H118.295C119.407 27.0194 120.361 27.9445 120.361 29.0238C120.343 30.1373 119.407 31.0453 118.277 31.0453ZM85.6737 14.8389C85.6737 13.7597 86.6275 12.8346 87.7401 12.8346H118.277C119.39 12.8346 120.343 13.7597 120.343 14.8389C120.343 15.9182 119.39 16.8433 118.277 16.8433H87.7401C86.6275 16.8433 85.6737 15.9182 85.6737 14.8389ZM153.988 14.8389C153.988 13.7597 154.942 12.8346 156.055 12.8346C157.168 12.8346 158.121 13.7597 158.121 14.8389V27.0023C158.121 29.2636 156.32 31.0624 153.988 31.0624C153.176 31.0624 152.399 30.8055 151.745 30.4286L132.018 18.7278C130.94 18.0939 130.251 17.717 129.775 17.717C128.909 17.717 128.785 18.7963 128.785 20.8007V29.0238C128.785 30.1031 127.832 31.0282 126.719 31.0282C125.606 31.0282 124.653 30.1031 124.653 29.0238V16.8605C124.653 14.5991 126.454 12.8003 128.785 12.8003C129.598 12.8003 130.375 13.0573 131.028 13.4342L150.756 25.135C151.834 25.7688 152.523 26.1457 152.999 26.1457C153.865 26.1457 153.988 25.0664 153.988 23.062V14.8389ZM194.133 12.8346C195.246 12.8346 196.199 13.7597 196.199 14.8389C196.199 15.9182 195.246 16.8433 194.133 16.8433H181.381V29.0409C181.381 30.1202 180.428 31.0453 179.315 31.0453C178.202 31.0453 177.249 30.1202 177.249 29.0409V16.8433H164.32C163.278 16.7577 162.431 15.884 162.431 14.8389C162.431 13.7597 163.384 12.8346 164.497 12.8346H194.133Z" fill="#BDBDBF"/>
<path d="M81.363 21.9484C81.363 26.0771 78.5549 30.8054 73.8746 31.0624H48.3183C47.2057 31.0624 46.252 30.1373 46.252 29.058V14.8389C46.252 13.7596 47.2057 12.8345 48.3183 12.8345H73.433C78.3959 12.8345 81.363 17.7169 81.363 21.9484ZM72.5323 16.8432H50.4024V27.0365H72.5499C76.5061 27.0365 77.3715 23.9528 77.3715 21.9313C77.3715 19.9098 76.5061 16.8432 72.5323 16.8432Z" fill="#BDBDBF"/>
<path d="M19.5853 0.5C22.0226 0.5 24.0007 2.41873 24.0007 4.78287V39.2171C24.0007 41.5813 22.0226 43.5 19.5853 43.5C17.148 43.5 15.1699 41.5813 15.1699 39.2171V4.78287C15.1699 2.41873 17.148 0.5 19.5853 0.5ZM19.5853 1.87052C17.9251 1.87052 16.5828 3.17251 16.5828 4.78287V39.2171C16.5828 40.8275 17.9251 42.1295 19.5853 42.1295C21.2455 42.1295 22.5878 40.8275 22.5878 39.2171V4.78287C22.5878 3.17251 21.2455 1.87052 19.5853 1.87052Z" fill="#BDBDBF"/>
<path d="M38.783 32.7586C37.5644 34.8144 34.8622 35.5168 32.7428 34.3347L2.01177 17.1004C-0.107614 15.9184 -0.831737 13.2973 0.404569 11.2586C1.64088 9.21997 4.32543 8.50045 6.44481 9.68252L37.1935 26.8997C39.2776 28.0817 40.0017 30.7028 38.783 32.7586ZM37.5644 32.0734C38.3945 30.6857 37.9 28.904 36.4694 28.0989L5.72069 10.8646C4.2901 10.0594 2.45331 10.5391 1.62321 11.9267C0.793123 13.3144 1.28764 15.1132 2.71823 15.9184L33.4669 33.1355C34.8975 33.9407 36.7343 33.461 37.5644 32.0734Z" fill="#BDBDBF"/>
<path d="M38.7825 11.2587C40.0011 13.3144 39.277 15.9184 37.1576 17.1176L6.4266 34.3176C4.30722 35.4997 1.62267 34.7973 0.38636 32.7415C-0.832284 30.6858 -0.108162 28.0818 2.01122 26.8826L32.7599 9.68258C34.8616 8.5005 37.5638 9.20289 38.7825 11.2587ZM37.5638 11.9439C36.7338 10.5563 34.897 10.0766 33.4664 10.8818L2.71768 28.0818C1.2871 28.887 0.792575 30.6686 1.62267 32.0563C2.45276 33.4439 4.28955 33.9236 5.72014 33.1184L36.4688 15.9184C37.8994 15.1133 38.3939 13.3316 37.5638 11.9439Z" fill="#BDBDBF"/>
</g>
<defs>
<clipPath id="clip0_1_288">
<rect width="196.5" height="43" fill="white" transform="translate(-0.25 0.5)"/>
</clipPath>
</defs>
</svg>
