<svg width="56" height="56" viewBox="0 0 56 56" fill="none" xmlns="http://www.w3.org/2000/svg">
<circle cx="28" cy="28" r="28" fill="#13111A"/>
<g clip-path="url(#clip0_1_135)">
<path fill-rule="evenodd" clip-rule="evenodd" d="M29.2316 17.3601C29.8636 16.6021 31.0946 17.1201 30.9946 18.1021L30.2886 25.0001H35.9996C36.1896 25.0001 36.3757 25.0543 36.536 25.1563C36.6963 25.2583 36.8243 25.4039 36.9049 25.576C36.9855 25.748 37.0153 25.9395 36.991 26.128C36.9667 26.3164 36.8892 26.4941 36.7676 26.6401L26.7676 38.6401C26.1356 39.3981 24.9046 38.8801 25.0046 37.8981L25.7106 31.0001H19.9996C19.8096 31 19.6236 30.9458 19.4632 30.8438C19.3029 30.7418 19.175 30.5962 19.0944 30.4242C19.0138 30.2521 18.9839 30.0606 19.0082 29.8721C19.0325 29.6837 19.11 29.5061 19.2316 29.3601L29.2316 17.3601ZM22.1346 29.0001H27.4826C27.5385 29.0001 27.5938 29.0118 27.6449 29.0345C27.696 29.0571 27.7418 29.0903 27.7793 29.1317C27.8168 29.1732 27.8452 29.222 27.8626 29.2752C27.8801 29.3283 27.8862 29.3844 27.8806 29.4401L27.3276 34.8451L33.8646 27.0001H28.5166C28.4607 27.0001 28.4054 26.9883 28.3543 26.9657C28.3033 26.943 28.2575 26.9098 28.22 26.8684C28.1825 26.8269 28.1541 26.7781 28.1366 26.725C28.1192 26.6719 28.113 26.6157 28.1186 26.5601L28.6716 21.1561L22.1346 29.0001Z" fill="#EFEFEE"/>
</g>
<defs>
<clipPath id="clip0_1_135">
<rect width="24" height="24" fill="white" transform="translate(16 16)"/>
</clipPath>
</defs>
</svg>
