<svg width="56" height="56" viewBox="0 0 56 56" fill="none" xmlns="http://www.w3.org/2000/svg">
<circle cx="28" cy="28" r="28" fill="#13111A"/>
<g clip-path="url(#clip0_1_126)">
<path d="M22.696 25.524L19.514 28.706C18.9977 29.2155 18.5872 29.8221 18.3063 30.4908C18.0253 31.1596 17.8794 31.8773 17.877 32.6027C17.8746 33.328 18.0157 34.0467 18.2921 34.7173C18.5686 35.388 18.975 35.9973 19.4879 36.5102C20.0008 37.0231 20.6101 37.4295 21.2807 37.7059C21.9514 37.9824 22.67 38.1235 23.3954 38.1211C24.1208 38.1186 24.8385 37.9727 25.5072 37.6918C26.176 37.4108 26.7826 37.0004 27.292 36.484L28.352 35.424C28.4954 35.2857 28.6097 35.1203 28.6884 34.9373C28.7671 34.7543 28.8086 34.5575 28.8104 34.3584C28.8122 34.1592 28.7744 33.9617 28.699 33.7773C28.6237 33.5929 28.5124 33.4254 28.3716 33.2845C28.2309 33.1436 28.0634 33.0321 27.8791 32.9566C27.6948 32.8811 27.4973 32.843 27.2981 32.8447C27.099 32.8463 26.9021 32.8876 26.7191 32.9661C26.536 33.0446 26.3705 33.1588 26.232 33.302L25.17 34.363C24.7004 34.8284 24.0656 35.0888 23.4045 35.0873C22.7433 35.0857 22.1097 34.8224 21.6423 34.3548C21.1748 33.8872 20.9116 33.2536 20.9103 32.5924C20.9089 31.9313 21.1695 31.2965 21.635 30.827L24.817 27.645C25.161 27.301 25.5978 27.0647 26.074 26.9652C26.5502 26.8658 27.0451 26.9074 27.498 27.085C27.66 27.149 27.81 27.215 27.952 27.281L28.416 27.498C29.036 27.778 29.513 27.898 30.12 27.292C30.992 26.42 30.766 25.615 29.703 24.882C28.644 24.1538 27.3634 23.8193 26.0835 23.9365C24.8036 24.0538 23.6051 24.6154 22.696 25.524ZM28.706 19.514L27.646 20.574C27.3727 20.8568 27.2213 21.2356 27.2245 21.6289C27.2278 22.0222 27.3853 22.3985 27.6633 22.6768C27.9413 22.955 28.3174 23.113 28.7107 23.1166C29.104 23.1202 29.483 22.9691 29.766 22.696L30.827 21.636C31.0576 21.3972 31.3334 21.2067 31.6384 21.0756C31.9433 20.9444 32.2714 20.8754 32.6033 20.8724C32.9353 20.8694 33.2645 20.9326 33.5718 21.0582C33.879 21.1838 34.1582 21.3694 34.393 21.604C34.6278 21.8387 34.8135 22.1178 34.9393 22.425C35.0651 22.7322 35.1284 23.0614 35.1257 23.3933C35.1229 23.7253 35.054 24.0533 34.9231 24.3584C34.7921 24.6634 34.6017 24.9393 34.363 25.17L31.181 28.352C30.8371 28.6961 30.4003 28.9324 29.924 29.0318C29.4478 29.1313 28.9529 29.0897 28.5 28.912C28.338 28.848 28.188 28.782 28.046 28.716L27.582 28.499C26.962 28.219 26.484 28.099 25.878 28.705C25.006 29.577 25.232 30.382 26.295 31.115C27.3541 31.8433 28.6347 32.1778 29.9146 32.0605C31.1945 31.9433 32.393 31.3816 33.302 30.473L36.484 27.291C37.0004 26.7816 37.4108 26.175 37.6918 25.5062C37.9727 24.8375 38.1186 24.1198 38.1211 23.3944C38.1235 22.669 37.9824 21.9504 37.7059 21.2797C37.4295 20.6091 37.0231 19.9998 36.5102 19.4869C35.9973 18.974 35.388 18.5676 34.7173 18.2911C34.0467 18.0147 33.328 17.8736 32.6027 17.876C31.8773 17.8784 31.1596 18.0243 30.4908 18.3053C29.8221 18.5862 29.2155 18.9977 28.706 19.514Z" fill="#EFEFEE"/>
</g>
<defs>
<clipPath id="clip0_1_126">
<rect width="24" height="24" fill="white" transform="matrix(-1 0 0 1 40 16)"/>
</clipPath>
</defs>
</svg>
