<svg width="56" height="56" viewBox="0 0 56 56" fill="none" xmlns="http://www.w3.org/2000/svg">
<circle cx="28" cy="28" r="28" fill="#13111A"/>
<path d="M28 18C28.2984 18 28.5845 18.1146 28.7955 18.3186C29.0065 18.5226 29.125 18.7993 29.125 19.0878V29.1527L31.7046 26.6584C31.9168 26.4603 32.201 26.3506 32.496 26.3531C32.7909 26.3556 33.0731 26.47 33.2817 26.6717C33.4903 26.8734 33.6086 27.1462 33.6111 27.4314C33.6137 27.7166 33.5003 27.9914 33.2954 28.1965L28.7954 32.5477C28.5844 32.7516 28.2983 32.8662 28 32.8662C27.7017 32.8662 27.4156 32.7516 27.2046 32.5477L22.7046 28.1965C22.5972 28.0962 22.5115 27.9762 22.4525 27.8435C22.3936 27.7107 22.3625 27.568 22.3612 27.4236C22.3599 27.2791 22.3884 27.1359 22.445 27.0022C22.5015 26.8685 22.5851 26.7471 22.6907 26.6449C22.7963 26.5428 22.9219 26.462 23.0602 26.4073C23.1984 26.3526 23.3466 26.3251 23.496 26.3264C23.6453 26.3276 23.793 26.3576 23.9302 26.4146C24.0675 26.4717 24.1916 26.5545 24.2954 26.6584L26.875 29.1527V19.0878C26.875 18.7993 26.9935 18.5226 27.2045 18.3186C27.4155 18.1146 27.7016 18 28 18ZM20.125 31.5611C20.4234 31.5611 20.7095 31.6757 20.9205 31.8797C21.1315 32.0837 21.25 32.3604 21.25 32.6489V34.8244H34.75V32.6489C34.75 32.3604 34.8685 32.0837 35.0795 31.8797C35.2905 31.6757 35.5766 31.5611 35.875 31.5611C36.1734 31.5611 36.4595 31.6757 36.6705 31.8797C36.8815 32.0837 37 32.3604 37 32.6489V34.8244C37 35.4014 36.7629 35.9548 36.341 36.3628C35.919 36.7708 35.3467 37 34.75 37H21.25C20.6533 37 20.081 36.7708 19.659 36.3628C19.2371 35.9548 19 35.4014 19 34.8244V32.6489C19 32.3604 19.1185 32.0837 19.3295 31.8797C19.5405 31.6757 19.8266 31.5611 20.125 31.5611Z" fill="#EFEFEE"/>
</svg>
