<svg width="113" height="140" viewBox="0 0 113 140" fill="none" xmlns="http://www.w3.org/2000/svg">
<circle cx="56.5" cy="68.5" r="56.5" fill="#FFC947"/>
<path d="M71 69L50 81.1244L50 56.8756L71 69Z" fill="#110F18"/>
<path d="M23.1583 47.8692L21.7466 50.0414L20.3766 49.1511L21.7882 46.9789C22.0064 46.6432 22.1293 46.3344 22.157 46.0526C22.1807 45.7683 22.1248 45.5127 21.9891 45.2857C21.8535 45.0587 21.6608 44.8641 21.4109 44.7018C21.1572 44.5369 20.8894 44.4322 20.6074 44.3877C20.3254 44.3433 20.0495 44.3833 19.7798 44.5078C19.5101 44.6324 19.2662 44.8625 19.0481 45.1982L18.0322 46.7615L25.1811 51.4073L24.0396 53.1638L15.5148 47.6238L17.6721 44.304C18.1059 43.6365 18.5985 43.1433 19.15 42.8244C19.7001 42.499 20.2684 42.3465 20.8548 42.3667C21.4413 42.3869 22.0058 42.5734 22.5483 42.9259C23.0987 43.2836 23.4925 43.7199 23.7296 44.2349C23.9668 44.7499 24.0387 45.3185 23.9452 45.9406C23.8544 46.5589 23.592 47.2018 23.1583 47.8692Z" fill="#13111A"/>
<path d="M22.6889 37.0571L30.5511 44.3524L29.1785 45.8317L21.3163 38.5364L22.6889 37.0571Z" fill="#13111A"/>
<path d="M33.7925 39.2063L31.705 36.5662C31.5549 36.3763 31.3954 36.2384 31.2265 36.1523C31.0547 36.0627 30.8727 36.0314 30.6806 36.0587C30.4922 36.0831 30.2957 36.1761 30.0912 36.3378C29.916 36.4764 29.789 36.6272 29.7102 36.7903C29.6286 36.9498 29.5979 37.1136 29.618 37.2817C29.6352 37.4461 29.703 37.6031 29.8214 37.7528L28.2439 39.0001C28.0447 38.7482 27.914 38.4628 27.8519 38.144C27.7897 37.8252 27.8021 37.4919 27.8892 37.1442C27.9734 36.7928 28.1298 36.4465 28.3586 36.1054C28.591 35.7614 28.899 35.4378 29.2824 35.1347C29.7425 34.7709 30.2121 34.5242 30.6912 34.3946C31.1704 34.265 31.6334 34.2728 32.0804 34.4178C32.5311 34.56 32.9383 34.8611 33.3021 35.3212L35.3073 37.8573C35.5643 38.1823 35.7951 38.433 35.9999 38.6093C36.2017 38.7821 36.4016 38.9148 36.5996 39.0075L36.6732 39.1007L35.0792 40.3609C34.8755 40.2609 34.6583 40.1062 34.4276 39.897C34.1976 39.6812 33.9859 39.451 33.7925 39.2063ZM32.2033 36.7686L32.9202 37.6528L32.0383 38.35C31.8302 38.5146 31.6682 38.6813 31.5524 38.85C31.4365 39.0187 31.364 39.1859 31.3347 39.3515C31.3025 39.5134 31.3074 39.6698 31.3494 39.8205C31.3951 39.9684 31.4714 40.1098 31.5782 40.2449C31.685 40.3801 31.8128 40.4778 31.9615 40.5383C32.1073 40.5951 32.2632 40.6084 32.4291 40.5781C32.5921 40.5441 32.7522 40.465 32.9092 40.3409C33.1465 40.1532 33.3153 39.9426 33.4155 39.7091C33.5158 39.4756 33.5585 39.2519 33.5437 39.0381C33.5326 38.8213 33.4798 38.6495 33.3852 38.5224L34.3299 38.8615C34.3898 39.0574 34.4322 39.2761 34.457 39.5177C34.4854 39.7563 34.4793 40.0074 34.4385 40.2711C34.3949 40.5311 34.3014 40.792 34.1581 41.0536C34.012 41.3116 33.791 41.5575 33.4952 41.7914C33.1191 42.0888 32.7185 42.2839 32.2934 42.3767C31.869 42.4629 31.462 42.4435 31.0723 42.3184C30.6834 42.1868 30.3532 41.9494 30.0818 41.6061C29.8364 41.2957 29.6769 40.9738 29.6032 40.6404C29.5295 40.307 29.5408 39.9687 29.6373 39.6253C29.7346 39.2755 29.9216 38.9228 30.1984 38.5674C30.4724 38.2084 30.8358 37.8499 31.2886 37.4919L32.2033 36.7686Z" fill="#13111A"/>
<path d="M38.8585 36.9342L37.557 30.0598L39.4732 29.068L40.7716 38.1848C40.8015 38.3843 40.8171 38.6069 40.8184 38.8525C40.8239 39.096 40.7889 39.3474 40.7134 39.6066C40.6442 39.8679 40.5144 40.1185 40.3242 40.3585C40.138 40.5964 39.8672 40.8073 39.5116 40.9913C39.3421 41.0791 39.1983 41.1404 39.0801 41.1754C38.9619 41.2103 38.8188 41.2477 38.6507 41.2875L37.9734 39.9791C38.0189 39.9555 38.0665 39.9309 38.1161 39.9052C38.1678 39.8837 38.2164 39.8612 38.2619 39.8376C38.4976 39.7157 38.6759 39.5893 38.7969 39.4585C38.9179 39.3277 38.995 39.183 39.0282 39.0243C39.0635 38.8697 39.0631 38.6917 39.027 38.4903L38.8585 36.9342ZM35.0331 31.3661L39.0067 35.4737L40.2399 37.2335L39.0919 37.9928L33.1169 32.3579L35.0331 31.3661Z" fill="#13111A"/>
<path d="M52.2541 30.7158C52.2237 30.5368 52.1688 30.3809 52.0896 30.248C52.0142 30.1097 51.8952 29.9929 51.7326 29.8978C51.5693 29.798 51.349 29.7103 51.0718 29.6347C50.7945 29.559 50.4407 29.4916 50.0104 29.4325C49.5311 29.3628 49.0717 29.2708 48.632 29.1566C48.197 29.0416 47.8027 28.889 47.4493 28.6988C47.0998 28.5032 46.8078 28.2577 46.5735 27.9622C46.3437 27.666 46.1922 27.3022 46.1189 26.8708C46.048 26.4532 46.0755 26.0589 46.2014 25.6881C46.3265 25.3127 46.5336 24.9754 46.8227 24.676C47.1111 24.3721 47.4688 24.1153 47.896 23.9058C48.3277 23.6956 48.8144 23.5445 49.3559 23.4525C50.0948 23.327 50.7622 23.3505 51.3582 23.5232C51.9541 23.6958 52.4429 23.9882 52.8245 24.4003C53.2108 24.8116 53.4545 25.3155 53.5559 25.9122L51.5044 26.2606C51.4545 25.9669 51.3489 25.7204 51.1876 25.5212C51.0301 25.3165 50.8165 25.171 50.5468 25.0846C50.2818 24.9974 49.9634 24.9854 49.5916 25.0486C49.2336 25.1094 48.9447 25.2151 48.7247 25.3658C48.504 25.5119 48.3496 25.6868 48.2614 25.8907C48.1725 26.0899 48.1472 26.302 48.1853 26.5269C48.2142 26.6967 48.2816 26.8434 48.3876 26.9671C48.4982 27.0899 48.6485 27.1966 48.8386 27.2871C49.0287 27.3776 49.2566 27.4546 49.5223 27.518C49.7881 27.5815 50.0925 27.636 50.4355 27.6817C51.0097 27.7541 51.5208 27.8585 51.969 27.9949C52.4217 28.1305 52.8098 28.303 53.1335 28.5125C53.4571 28.7219 53.7177 28.9775 53.9153 29.2792C54.1129 29.5808 54.2468 29.9382 54.317 30.3513C54.391 30.7873 54.3724 31.1918 54.261 31.5648C54.1497 31.9379 53.9536 32.271 53.6729 32.5642C53.3922 32.8574 53.0398 33.1038 52.6156 33.3033C52.1915 33.5029 51.7041 33.6494 51.1534 33.7429C50.6577 33.8271 50.158 33.8459 49.6543 33.7992C49.1498 33.748 48.6776 33.6228 48.2377 33.4237C47.8024 33.2237 47.4326 32.9371 47.1284 32.5638C46.8242 32.1905 46.6241 31.7216 46.5283 31.1571L48.6004 30.8052C48.6534 31.1173 48.7464 31.373 48.8794 31.5723C49.0124 31.7716 49.1774 31.923 49.3744 32.0265C49.576 32.1292 49.8035 32.1897 50.0569 32.2081C50.3149 32.2256 50.5907 32.2095 50.8844 32.1596C51.2424 32.0988 51.5275 31.9984 51.7399 31.8585C51.9568 31.7178 52.1051 31.5485 52.1849 31.3508C52.2692 31.1524 52.2923 30.9407 52.2541 30.7158Z" fill="#13111A"/>
<path d="M57.6124 22.3906L57.2036 33.1082L55.1941 33.0316L55.6029 22.3139L57.6124 22.3906ZM57.0717 29.0573L56.5204 29.0362C56.5451 28.5108 56.6334 28.0296 56.7851 27.5929C56.937 27.1514 57.1448 26.7727 57.4084 26.4567C57.6722 26.136 57.982 25.8916 58.3378 25.7235C58.6983 25.5555 59.0925 25.4797 59.5205 25.496C59.8926 25.5102 60.2278 25.5766 60.5261 25.6951C60.8292 25.8092 61.0856 25.9867 61.2954 26.2276C61.51 26.464 61.6707 26.7706 61.7774 27.1474C61.8842 27.5241 61.9274 27.9777 61.9072 28.508L61.7252 33.2807L59.7016 33.2035L59.8842 28.4168C59.897 28.0819 59.8582 27.8172 59.7678 27.6228C59.6822 27.4239 59.5502 27.2814 59.3718 27.1954C59.1982 27.1049 58.9812 27.0547 58.7207 27.0448C58.4323 27.0338 58.1837 27.0779 57.9749 27.1771C57.7708 27.2764 57.6047 27.4191 57.4764 27.6053C57.3484 27.7867 57.2517 28.002 57.1863 28.251C57.1209 28.5001 57.0827 28.7688 57.0717 29.0573Z" fill="#13111A"/>
<path d="M62.897 29.656L62.9326 29.5138C63.0672 28.9764 63.2678 28.5012 63.5345 28.0881C63.8023 27.6705 64.1248 27.3314 64.502 27.0707C64.8792 26.8101 65.3055 26.6409 65.7809 26.5633C66.2574 26.4811 66.7733 26.5095 67.3287 26.6487C67.8842 26.7878 68.3549 27.0065 68.7409 27.3047C69.128 27.5985 69.4265 27.9492 69.6363 28.3569C69.8506 28.7657 69.9774 29.2174 70.0167 29.7119C70.0571 30.2019 70.01 30.7156 69.8754 31.253L69.8397 31.3952C69.7063 31.9281 69.5056 32.4033 69.2379 32.8209C68.9712 33.234 68.6465 33.5726 68.2636 33.8366C67.8864 34.0972 67.4601 34.2664 66.9847 34.344C66.5094 34.4217 65.994 34.391 65.4385 34.2519C64.8831 34.1127 64.4118 33.8963 64.0247 33.6026C63.6421 33.31 63.3436 32.9593 63.1293 32.5504C62.9206 32.1382 62.7961 31.6871 62.7557 31.1971C62.7164 30.7026 62.7635 30.1889 62.897 29.656ZM64.8834 30.0025L64.8477 30.1447C64.7708 30.4518 64.7261 30.7453 64.7135 31.0253C64.701 31.3053 64.7279 31.5616 64.7944 31.7942C64.8666 32.0234 64.9856 32.2188 65.1515 32.3803C65.3174 32.5419 65.5403 32.6577 65.8203 32.7278C66.0912 32.7957 66.3379 32.7975 66.5604 32.7333C66.7828 32.669 66.9777 32.5523 67.1448 32.383C67.3131 32.2092 67.4578 31.9959 67.5787 31.743C67.7041 31.4913 67.8053 31.2119 67.8822 30.9048L67.9179 30.7626C67.9925 30.4646 68.0333 30.1773 68.0402 29.9006C68.0528 29.6206 68.0235 29.3638 67.9525 29.13C67.8871 28.8929 67.7721 28.6913 67.6073 28.5253C67.4425 28.3592 67.2224 28.2417 66.947 28.1727C66.6715 28.1037 66.422 28.1036 66.1984 28.1723C65.9794 28.2422 65.7828 28.3658 65.6089 28.543C65.4406 28.7167 65.296 28.9301 65.175 29.1829C65.0552 29.4312 64.958 29.7044 64.8834 30.0025Z" fill="#13111A"/>
<path d="M72.8911 34.5176L76.8869 30.291L78.018 30.8853L76.6302 32.6408L72.7482 36.6511L71.8024 36.1541L72.8911 34.5176ZM74.7914 29.1899L73.1849 34.664L72.3649 36.4497L71.2523 35.8651L73.073 28.2869L74.7914 29.1899ZM76.7319 36.4253L80.2619 32.0644L81.9864 32.9706L76.7784 38.7688L75.6719 38.1874L76.7319 36.4253ZM78.1726 30.9665L76.9718 36.6144L76.2344 38.483L75.2825 37.9828L76.3797 32.5171L77.0537 30.3787L78.1726 30.9665Z" fill="#13111A"/>
<path d="M83.8494 36.7345L80.154 41.3433L78.5851 40.0853L83.3113 34.1908L84.7877 35.3746L83.8494 36.7345ZM86.6868 36.8347L85.4933 38.2674C85.4258 38.1954 85.3405 38.112 85.2373 38.0174C85.1407 37.9221 85.0489 37.8394 84.9617 37.7695C84.7402 37.5919 84.5244 37.4666 84.3143 37.3937C84.1109 37.32 83.911 37.294 83.7146 37.3156C83.522 37.3401 83.3358 37.4086 83.1561 37.5211C82.98 37.6365 82.8083 37.7912 82.6408 37.9851L82.4035 37.6337C82.7093 37.2523 83.0284 36.9324 83.3609 36.674C83.6964 36.4119 84.0328 36.2193 84.3703 36.096C84.7114 35.9757 85.0415 35.9361 85.3606 35.9772C85.6797 36.0182 85.9773 36.1494 86.2533 36.3707C86.3405 36.4406 86.4236 36.5192 86.5028 36.6066C86.5849 36.6903 86.6462 36.7663 86.6868 36.8347Z" fill="#13111A"/>
<path d="M84.4075 45.6093C84.0153 45.1731 83.7328 44.7197 83.5599 44.2491C83.3906 43.7753 83.3215 43.3053 83.3529 42.8388C83.3873 42.3759 83.5113 41.9325 83.725 41.5087C83.9421 41.0818 84.2376 40.7003 84.6114 40.3641L84.8191 40.1773C85.2448 39.7944 85.6887 39.5048 86.1507 39.3085C86.6127 39.1121 87.0746 39.0097 87.5366 39.0012C88.0016 38.9962 88.4497 39.0941 88.8807 39.2949C89.3152 39.4927 89.7162 39.7958 90.0835 40.2042C90.4415 40.6023 90.6932 41.0145 90.8387 41.4408C90.9842 41.8671 91.0292 42.2931 90.9737 42.7187C90.9213 43.1477 90.7737 43.5684 90.531 43.9808C90.2918 44.39 89.9662 44.7799 89.5543 45.1503L88.9313 45.7106L84.9157 41.2455L85.9126 40.349L88.6067 43.3448L88.7209 43.242C88.9286 43.0553 89.0796 42.8507 89.1738 42.6282C89.2745 42.4061 89.3065 42.1771 89.2695 41.9411C89.2326 41.7051 89.1098 41.4711 88.9013 41.2392C88.7238 41.0419 88.5281 40.9112 88.3139 40.8471C88.0997 40.783 87.8743 40.776 87.6376 40.8261C87.404 40.8797 87.1614 40.9789 86.9098 41.1238C86.6648 41.269 86.4177 41.4537 86.1685 41.6778L85.9608 41.8646C85.7358 42.0669 85.5561 42.2848 85.4218 42.5183C85.2906 42.7553 85.2086 42.9949 85.176 43.2371C85.1465 43.4827 85.17 43.7246 85.2463 43.9627C85.3258 44.2043 85.4636 44.4341 85.6598 44.6521C85.9026 44.9221 86.1802 45.1264 86.4926 45.2649C86.8115 45.4038 87.1546 45.4615 87.5217 45.4381L87.3862 46.8747C87.1108 46.9095 86.8034 46.8949 86.4639 46.8308C86.1276 46.7701 85.7817 46.643 85.426 46.4494C85.0739 46.2527 84.7344 45.9727 84.4075 45.6093Z" fill="#13111A"/>
<path d="M88.5514 51.3263C88.2499 50.8232 88.0594 50.3241 87.9799 49.8291C87.9044 49.3317 87.9266 48.8571 88.0466 48.4053C88.169 47.9575 88.3757 47.546 88.6665 47.171C88.9613 46.7935 89.3243 46.4756 89.7556 46.2172L89.9952 46.0736C90.4864 45.7793 90.9775 45.5801 91.4685 45.4758C91.9596 45.3715 92.4326 45.3594 92.8876 45.4395C93.345 45.5236 93.766 45.7055 94.1507 45.9851C94.5393 46.2624 94.8748 46.6366 95.1571 47.1078C95.4323 47.567 95.6005 48.0198 95.6617 48.4661C95.7229 48.9124 95.6855 49.3391 95.5495 49.7462C95.4159 50.1573 95.1906 50.5419 94.8734 50.9002C94.5603 51.2561 94.1661 51.5764 93.6909 51.8611L92.9721 52.2918L89.8856 47.1406L91.0356 46.4515L93.1065 49.9076L93.2382 49.8286C93.4778 49.6851 93.6652 49.5131 93.8002 49.3128C93.9416 49.1141 94.0168 48.8954 94.0257 48.6567C94.0346 48.418 93.959 48.1649 93.7986 47.8974C93.6623 47.6697 93.4951 47.504 93.2972 47.4001C93.0993 47.2962 92.8793 47.2462 92.6374 47.25C92.3979 47.2578 92.1408 47.3088 91.8661 47.4028C91.5978 47.4985 91.3199 47.6324 91.0324 47.8047L90.7928 47.9483C90.5333 48.1038 90.3152 48.2833 90.1387 48.4867C89.9645 48.6942 89.8382 48.9137 89.7598 49.1452C89.6839 49.3806 89.6606 49.6225 89.6899 49.8708C89.7217 50.1231 89.813 50.375 89.9637 50.6266C90.1504 50.9381 90.3837 51.1917 90.6638 51.3875C90.9503 51.5848 91.276 51.7072 91.6408 51.7545L91.2328 53.1386C90.9558 53.1201 90.6568 53.0468 90.336 52.9189C90.0175 52.795 89.7023 52.604 89.3903 52.3459C89.0823 52.0855 88.8027 51.7456 88.5514 51.3263Z" fill="#13111A"/>
<path d="M101.18 52.5275L91.2611 56.6069L90.4935 54.7406L100.413 50.6612L101.18 52.5275Z" fill="#13111A"/>
<path d="M89.96 90.3481L91.3977 88.1931L92.757 89.0999L91.3193 91.2549C91.0971 91.588 90.9705 91.8952 90.9394 92.1766C90.9122 92.4607 90.965 92.717 91.0979 92.9455C91.2308 93.1741 91.4212 93.3711 91.6691 93.5364C91.9208 93.7043 92.1873 93.8122 92.4688 93.8601C92.7502 93.908 93.0265 93.8712 93.2977 93.75C93.5689 93.6287 93.8156 93.4015 94.0377 93.0685L95.0724 91.5176L87.98 86.786L89.1425 85.0433L97.6 90.6856L95.4028 93.9792C94.961 94.6414 94.4625 95.1286 93.9072 95.4409C93.3532 95.7596 92.7832 95.9053 92.197 95.878C91.6109 95.8507 91.0486 95.6575 90.5104 95.2984C89.9643 94.9341 89.5759 94.4931 89.3449 93.9753C89.114 93.4575 89.049 92.8881 89.1499 92.2671C89.2482 91.65 89.5182 91.0103 89.96 90.3481Z" fill="#13111A"/>
<path d="M90.2991 101.165L82.5253 93.7757L83.9157 92.313L91.6894 99.7025L90.2991 101.165Z" fill="#13111A"/>
<path d="M79.2222 98.8823L81.2777 101.547C81.4256 101.739 81.5834 101.879 81.7513 101.967C81.922 102.059 82.1035 102.092 82.2959 102.067C82.4846 102.045 82.6822 101.954 82.8886 101.795C83.0656 101.659 83.1944 101.509 83.2751 101.347C83.3586 101.189 83.3913 101.025 83.3732 100.857C83.358 100.693 83.292 100.535 83.1755 100.384L84.7679 99.1553C84.9641 99.4097 85.0913 99.6966 85.1496 100.016C85.2079 100.336 85.1915 100.669 85.1002 101.015C85.0118 101.366 84.8512 101.71 84.6183 102.048C84.3818 102.39 84.07 102.709 83.6829 103.008C83.2185 103.366 82.7459 103.607 82.2653 103.731C81.7846 103.855 81.3217 103.842 80.8764 103.691C80.4275 103.543 80.0239 103.237 79.6657 102.773L77.6913 100.213C77.4382 99.8849 77.2104 99.6315 77.0078 99.4526C76.8081 99.2775 76.6098 99.1423 76.413 99.0472L76.3405 98.9532L77.9495 97.7123C78.152 97.8147 78.3673 97.972 78.5955 98.184C78.8228 98.4026 79.0318 98.6353 79.2222 98.8823ZM80.7819 101.339L80.0757 100.446L80.9659 99.7596C81.176 99.5976 81.34 99.4329 81.4579 99.2656C81.5757 99.0982 81.6503 98.932 81.6816 98.7667C81.7157 98.6052 81.7127 98.4488 81.6725 98.2976C81.6286 98.1492 81.5541 98.0068 81.4489 97.8704C81.3437 97.734 81.2171 97.6347 81.0691 97.5725C80.924 97.5139 80.7683 97.4988 80.602 97.5271C80.4386 97.5591 80.2776 97.6362 80.1191 97.7584C79.8795 97.9432 79.7082 98.1518 79.6052 98.3841C79.5022 98.6164 79.4568 98.8395 79.469 99.0535C79.4775 99.2704 79.5282 99.4429 79.6212 99.5711L78.6807 99.2206C78.6231 99.024 78.5834 98.8048 78.5615 98.563C78.5359 98.324 78.5451 98.073 78.5891 97.8098C78.6358 97.5503 78.7324 97.2906 78.8788 97.0307C79.0281 96.7745 79.252 96.5313 79.5506 96.301C79.9303 96.0082 80.3332 95.8179 80.7594 95.7302C81.1848 95.6491 81.5915 95.6734 81.9797 95.8032C82.367 95.9395 82.6943 96.1809 82.9615 96.5274C83.2032 96.8407 83.3588 97.1645 83.4285 97.4988C83.4982 97.833 83.4827 98.1712 83.3821 98.5134C83.2807 98.8621 83.0894 99.2124 82.8083 99.5644C82.53 99.9201 82.1624 100.274 81.7053 100.627L80.7819 101.339Z" fill="#13111A"/>
<path d="M74.1292 101.093L75.3477 107.983L73.4197 108.951L72.2312 99.8196C72.2038 99.6198 72.1909 99.397 72.1925 99.1514C72.1899 98.9078 72.228 98.6569 72.3066 98.3986C72.3789 98.1382 72.5117 97.8892 72.7049 97.6515C72.8939 97.4159 73.1672 97.2082 73.525 97.0285C73.6955 96.9428 73.8401 96.8832 73.9587 96.8497C74.0773 96.8161 74.2209 96.7805 74.3894 96.7427L75.0509 98.0592C75.0051 98.0822 74.9573 98.1062 74.9073 98.1313C74.8553 98.1522 74.8065 98.1742 74.7607 98.1972C74.5236 98.3163 74.3438 98.4405 74.2212 98.5698C74.0986 98.6991 74.0198 98.8429 73.9847 99.0012C73.9475 99.1553 73.9457 99.3333 73.9794 99.5352L74.1292 101.093ZM77.8872 106.707L73.9633 102.552L72.7514 100.777L73.9086 100.032L79.8152 105.738L77.8872 106.707Z" fill="#13111A"/>
<path d="M60.6597 107.15C60.6879 107.329 60.7409 107.486 60.8185 107.62C60.8922 107.759 61.0098 107.877 61.1712 107.974C61.3333 108.076 61.5525 108.166 61.8289 108.245C62.1052 108.324 62.4582 108.396 62.8877 108.46C63.3661 108.535 63.8244 108.633 64.2627 108.752C64.6963 108.873 65.0887 109.03 65.4397 109.224C65.7869 109.424 66.0759 109.673 66.3067 109.972C66.5328 110.27 66.68 110.636 66.748 111.068C66.8139 111.487 66.7817 111.881 66.6513 112.25C66.5217 112.624 66.3105 112.959 66.0178 113.255C65.7259 113.555 65.365 113.807 64.9354 114.012C64.5011 114.217 64.0127 114.362 63.4701 114.447C62.7297 114.564 62.0626 114.532 61.4688 114.353C60.875 114.173 60.3898 113.875 60.0131 113.458C59.6319 113.042 59.3942 112.535 59.3001 111.937L61.3556 111.614C61.4019 111.908 61.5046 112.156 61.6635 112.357C61.8185 112.563 62.0303 112.711 62.2989 112.801C62.5629 112.891 62.8812 112.907 63.2536 112.849C63.6123 112.792 63.9025 112.69 64.1243 112.542C64.3467 112.398 64.5033 112.225 64.5939 112.023C64.6852 111.824 64.7131 111.613 64.6776 111.387C64.6508 111.217 64.5852 111.07 64.4807 110.945C64.3716 110.821 64.2226 110.712 64.0336 110.619C63.8446 110.527 63.6176 110.447 63.3527 110.38C63.0877 110.314 62.784 110.255 62.4416 110.206C61.8683 110.126 61.3584 110.016 60.912 109.874C60.4609 109.733 60.0749 109.556 59.7538 109.342C59.4327 109.129 59.1752 108.87 58.9813 108.566C58.7873 108.262 58.6577 107.903 58.5925 107.489C58.5237 107.053 58.5473 106.648 58.6631 106.277C58.7789 105.905 58.979 105.574 59.2632 105.284C59.5474 104.995 59.9028 104.752 60.3293 104.558C60.7558 104.364 61.245 104.223 61.7968 104.136C62.2934 104.058 62.7933 104.045 63.2964 104.098C63.8002 104.155 64.2709 104.286 64.7084 104.49C65.1412 104.696 65.5075 104.987 65.8072 105.364C66.1069 105.741 66.3013 106.212 66.3904 106.777L64.3142 107.104C64.2649 106.792 64.175 106.535 64.0444 106.334C63.9138 106.133 63.7506 105.98 63.5549 105.874C63.3545 105.769 63.1278 105.705 62.8747 105.684C62.6169 105.663 62.3409 105.676 62.0466 105.723C61.6879 105.779 61.4016 105.876 61.1876 106.013C60.969 106.151 60.8187 106.319 60.7365 106.516C60.6498 106.713 60.6242 106.924 60.6597 107.15Z" fill="#13111A"/>
<path d="M55.2014 115.41L55.7393 104.698L57.7478 104.799L57.2099 115.511L55.2014 115.41ZM55.8225 108.75L56.3734 108.778C56.3424 109.303 56.2483 109.783 56.0913 110.218C55.9341 110.657 55.7218 111.034 55.4544 111.346C55.1867 111.664 54.874 111.905 54.5162 112.068C54.1538 112.232 53.7587 112.303 53.3309 112.282C52.959 112.263 52.6246 112.193 52.3278 112.07C52.026 111.953 51.7718 111.772 51.5649 111.529C51.3532 111.29 51.1962 110.981 51.094 110.603C50.9918 110.225 50.954 109.771 50.9806 109.241L51.2202 104.471L53.2426 104.573L53.0024 109.357C52.9856 109.691 53.0212 109.957 53.1093 110.152C53.1924 110.352 53.3227 110.496 53.5001 110.584C53.6725 110.677 53.889 110.73 54.1493 110.743C54.4376 110.757 54.6867 110.716 54.8966 110.619C55.1019 110.522 55.2698 110.382 55.4002 110.197C55.5304 110.017 55.6297 109.803 55.6981 109.555C55.7665 109.307 55.808 109.038 55.8225 108.75Z" fill="#13111A"/>
<path d="M50.0048 108.081L49.9674 108.223C49.8264 108.759 49.62 109.231 49.3484 109.641C49.0756 110.056 48.7491 110.391 48.3687 110.647C47.9884 110.903 47.5601 111.067 47.0838 111.139C46.6064 111.215 46.0908 111.181 45.5371 111.035C44.9834 110.889 44.5154 110.665 44.133 110.362C43.7494 110.063 43.4552 109.709 43.2503 109.299C43.0409 108.888 42.9196 108.434 42.8863 107.94C42.8518 107.449 42.905 106.936 43.0461 106.4L43.0835 106.258C43.2234 105.727 43.4297 105.254 43.7025 104.84C43.9741 104.43 44.3029 104.096 44.6889 103.836C45.0693 103.58 45.4976 103.416 45.9738 103.344C46.4501 103.272 46.9651 103.309 47.5188 103.455C48.0725 103.601 48.5411 103.823 48.9247 104.121C49.3037 104.419 49.5979 104.773 49.8073 105.184C50.011 105.599 50.1301 106.051 50.1646 106.542C50.1979 107.037 50.1447 107.55 50.0048 108.081ZM48.0227 107.711L48.0601 107.569C48.1407 107.263 48.1889 106.97 48.2049 106.69C48.2208 106.41 48.1969 106.154 48.1332 105.92C48.0638 105.69 47.9472 105.493 47.7832 105.33C47.6193 105.166 47.3978 105.048 47.1187 104.974C46.8486 104.903 46.6019 104.898 46.3787 104.96C46.1555 105.022 45.9593 105.136 45.7901 105.303C45.6197 105.475 45.4725 105.687 45.3486 105.938C45.2201 106.188 45.1155 106.466 45.0349 106.772L44.9976 106.914C44.9194 107.211 44.8751 107.498 44.8649 107.775C44.8489 108.054 44.8751 108.312 44.9433 108.546C45.0058 108.784 45.1184 108.987 45.2812 109.155C45.4439 109.323 45.6626 109.443 45.9372 109.516C46.2118 109.588 46.4613 109.591 46.6857 109.525C46.9056 109.458 47.1036 109.337 47.2796 109.161C47.45 108.99 47.5972 108.778 47.7212 108.527C47.844 108.28 47.9445 108.008 48.0227 107.711Z" fill="#13111A"/>
<path d="M40.0699 103.1L36.0236 107.278L34.8996 106.67L36.3085 104.931L40.2386 100.968L41.1782 101.476L40.0699 103.1ZM38.1056 108.404L39.7779 102.95L40.6193 101.174L41.7249 101.772L39.813 109.328L38.1056 108.404ZM36.2524 101.146L32.6702 105.464L30.9566 104.537L36.2341 98.8018L37.3335 99.3965L36.2524 101.146ZM34.7461 106.587L36.0148 100.954L36.7746 99.0942L37.7204 99.6058L36.5575 105.058L35.8577 107.188L34.7461 106.587Z" fill="#13111A"/>
<path d="M29.1391 100.751L32.8898 96.1868L34.4435 97.4636L29.6465 103.301L28.1846 102.099L29.1391 100.751ZM26.3031 100.616L27.5138 99.1982C27.5805 99.271 27.6648 99.3554 27.7668 99.4512C27.8622 99.5477 27.9531 99.6315 28.0394 99.7024C28.2588 99.8827 28.4731 100.011 28.6822 100.086C28.8848 100.162 29.0843 100.191 29.2809 100.171C29.4739 100.149 29.6609 100.083 29.8419 99.9726C30.0194 99.8593 30.1929 99.7067 30.3627 99.5148L30.5958 99.8691C30.2855 100.247 29.9625 100.563 29.6269 100.817C29.2883 101.075 28.9495 101.264 28.6106 101.383C28.2681 101.499 27.9375 101.535 27.6189 101.49C27.3003 101.445 27.0044 101.31 26.731 101.086C26.6447 101.015 26.5625 100.935 26.4844 100.847C26.4034 100.762 26.3429 100.685 26.3031 100.616Z" fill="#13111A"/>
<path d="M28.688 91.87C29.0749 92.3108 29.352 92.7675 29.5191 93.2402C29.6828 93.716 29.7461 94.1869 29.7092 94.6529C29.6692 95.1154 29.5398 95.5572 29.3211 95.9784C29.0988 96.4027 28.7988 96.7806 28.421 97.1123L28.211 97.2965C27.7807 97.6743 27.3334 97.9585 26.8691 98.1493C26.4047 98.3401 25.9416 98.4369 25.4796 98.4398C25.0145 98.4392 24.5676 98.3359 24.139 98.1299C23.7069 97.9269 23.3097 97.6191 22.9473 97.2062C22.5942 96.8039 22.3474 96.3887 22.207 95.9606C22.0667 95.5326 22.0268 95.1061 22.0875 94.6812C22.145 94.2528 22.2977 93.8339 22.5453 93.4245C22.7895 93.0182 23.1197 92.6323 23.5361 92.2669L24.1658 91.7141L28.1273 96.2273L27.1197 97.1117L24.4618 94.0837L24.3464 94.185C24.1364 94.3693 23.983 94.572 23.8862 94.7933C23.7827 95.0142 23.7481 95.2429 23.7821 95.4793C23.8162 95.7157 23.9362 95.9511 24.1419 96.1855C24.3169 96.385 24.5112 96.518 24.7245 96.5847C24.9379 96.6513 25.1632 96.6611 25.4005 96.6138C25.6347 96.5631 25.8785 96.4668 26.1318 96.325C26.3786 96.1827 26.6279 96.001 26.8798 95.7799L27.0897 95.5957C27.3171 95.396 27.4994 95.1803 27.6365 94.9484C27.7706 94.7131 27.8554 94.4745 27.891 94.2327C27.9234 93.9874 27.9029 93.7453 27.8294 93.5063C27.7528 93.2638 27.6178 93.0323 27.4243 92.8119C27.1848 92.539 26.9097 92.3315 26.599 92.1892C26.2817 92.0465 25.9394 91.9846 25.572 92.0036L25.7248 90.5687C26.0006 90.5372 26.3078 90.5555 26.6464 90.6238C26.982 90.6885 27.3264 90.8198 27.6797 91.0176C28.0294 91.2185 28.3656 91.5026 28.688 91.87Z" fill="#13111A"/>
<path d="M24.6133 86.1034C24.9087 86.6101 25.0932 87.1114 25.1667 87.6074C25.2363 88.1057 25.2083 88.58 25.0829 89.0303C24.9551 89.4766 24.7435 89.8855 24.4482 90.257C24.1488 90.6309 23.782 90.9444 23.3476 91.1976L23.1063 91.3383C22.6117 91.6266 22.1182 91.82 21.6259 91.9184C21.1336 92.0167 20.6605 92.0231 20.2065 91.9375C19.7501 91.8479 19.3313 91.661 18.9501 91.3767C18.5648 91.0948 18.2339 90.7166 17.9572 90.242C17.6876 89.7795 17.5249 89.3247 17.4691 88.8777C17.4133 88.4307 17.4558 88.0045 17.5967 87.5991C17.7352 87.1896 17.9652 86.8077 18.2866 86.4533C18.604 86.1012 19.0021 85.7857 19.4806 85.5067L20.2045 85.0847L23.2288 90.2727L22.0705 90.9479L20.0415 87.4671L19.9088 87.5445C19.6675 87.6851 19.4781 87.8548 19.3406 88.0535C19.1968 88.2505 19.119 88.4682 19.1072 88.7068C19.0954 88.9454 19.1681 89.1994 19.3251 89.4689C19.4588 89.6981 19.6239 89.8659 19.8206 89.9721C20.0172 90.0784 20.2365 90.1311 20.4785 90.1302C20.718 90.1252 20.9757 90.0774 21.2515 89.9866C21.521 89.8942 21.8005 89.7636 22.09 89.5949L22.3313 89.4542C22.5928 89.3018 22.813 89.125 22.992 88.9236C23.1686 88.7183 23.2975 88.5003 23.3787 88.2698C23.4575 88.0353 23.4837 87.7937 23.4573 87.5451C23.4286 87.2924 23.3403 87.0394 23.1927 86.786C23.0098 86.4723 22.7795 86.2159 22.5018 86.0168C22.2177 85.816 21.8935 85.6897 21.5293 85.638L21.9539 84.2589C22.2307 84.2808 22.5288 84.3576 22.848 84.4894C23.165 84.6172 23.4779 84.8119 23.7868 85.0737C24.0916 85.3379 24.3671 85.6811 24.6133 86.1034Z" fill="#13111A"/>
<path d="M11.9996 84.7501L21.9675 80.7905L22.7124 82.666L12.7446 86.6255L11.9996 84.7501Z" fill="#13111A"/>
<circle cx="14.5" cy="68.5" r="2.5" fill="#110F18"/>
<circle cx="98.5" cy="68.5" r="2.5" fill="#110F18"/>
</svg>
