<svg width="77" height="66" viewBox="0 0 77 66" fill="none" xmlns="http://www.w3.org/2000/svg">
<path d="M59 8C58.1427 9.00903 56.5 11.5 55.4754 12.8581C54.587 13.8576 54.5 14 53 16C51.2507 18.3324 49.9895 20.6859 48.5743 22.455C45.349 26.4866 41.5792 31.3266 38.9774 35.8798C37.7134 38.0919 35.8414 40.1446 34.5024 42.4575C33.3094 44.5181 31.5 47 30.2701 49.4934C28.787 52.5 27.4764 55 25.9839 57.985C24.4914 60.97 24.0059 61.2217 23 63.5" stroke="#19151A" stroke-width="5" stroke-linecap="round"/>
<path d="M38.0059 3.15332C38.4911 4.49988 38.4911 9.5603 38.4911 11.4293C38.4911 17.1623 38.4911 22.8952 38.4911 28.6282C38.4911 30.7264 38.513 32.4874 38.9494 34.451C39.3457 36.2345 39.9468 38.1277 39.9468 40.0043C39.9468 46.3577 40.432 52.1444 40.432 58.4702" stroke="#19151A" stroke-width="5" stroke-linecap="round"/>
<path d="M18 7.5C19.3376 8.83763 21.2633 11.154 22.5 12.5C24 14.1326 25.5 15.5 27.5 17.5C29.5 19.5 30 20.5 32 22.5C34 24.5 36.3588 26.5057 36.5 27C38 29 38.5 29.5 40.0261 31.3414C42.7558 34.6352 45 39 47.682 42.9871C49 44.9464 50 46 51.5 48C53 50 54 51.5 55 53" stroke="#19151A" stroke-width="5" stroke-linecap="round"/>
<path d="M11.5 35.0001C15.5069 35.0001 17.5 35.0001 21.5 34.6939C24 34.5025 25.5 34.5001 27.5 34.0001C29.5 33.5001 30.0018 33.5526 31.9669 33.2382C34.8148 32.7825 37.2729 32.2677 40.189 32.2677C50.2664 32.2677 60.4602 30.812 70.5162 30.812" stroke="#19151A" stroke-width="5" stroke-linecap="round"/>
</svg>
