<svg width="71" height="71" viewBox="0 0 71 71" fill="none" xmlns="http://www.w3.org/2000/svg">
<path d="M62.7417 35.6109C62.7417 45.3734 60.5229 54.6921 55.9745 63.3453C55.7526 63.789 55.5308 64.1218 55.3089 64.5656C54.6433 65.6749 53.6448 66.3406 52.4245 65.564C51.2042 64.7874 51.2042 63.6781 51.7589 62.5687C52.0917 61.7921 52.5354 61.1265 52.8683 60.3499C56.5292 52.9171 58.5261 45.0406 58.637 38.3843C58.637 24.4062 50.3167 14.9765 39.0011 13.0906C23.5808 10.539 17.0354 22.964 16.5917 23.6296L15.8151 24.8499C13.9292 24.8499 12.1542 25.1828 10.6011 25.9593L11.9323 23.0749C15.4823 16.0859 22.0276 10.8718 29.9042 9.20775C46.6558 5.54681 62.6308 18.3046 62.7417 35.6109Z" fill="black"/>
<path d="M54.3105 37.3859C53.8667 48.7015 50.2058 58.7968 43.2167 67.7828C42.773 68.4484 42.2183 69.0031 41.6636 69.6687C40.7761 70.7781 39.6667 71.3328 38.4464 70.2234C37.2261 69.114 37.5589 68.0047 38.5573 66.8953C41.3308 63.5672 43.7714 60.0172 45.6573 56.1343C48.6526 49.9218 50.2058 43.2656 50.2058 36.3875C50.3167 27.9562 43.9933 21.3 35.8948 21.3H34.7855C30.348 21.5218 26.3542 24.0734 23.9136 27.7343C22.8042 26.8468 21.5839 26.1812 20.1417 25.7375L20.2526 25.5156C21.473 23.6297 22.9151 21.8547 24.8011 20.5234C28.0183 18.1937 31.9011 16.9734 36.2276 17.0843C46.9886 17.3062 54.7542 26.0703 54.3105 37.3859Z" fill="black"/>
<path d="M46.1011 37.164C45.5464 47.5921 41.9964 56.4671 35.562 64.0109L33.3433 66.3406V59.9062L35.562 57.0218C39.5558 51.0312 41.6636 44.0422 41.8855 36.2765C41.9964 32.1718 39.4448 29.3984 35.8948 29.3984H35.7839C33.0105 29.3984 30.6808 31.5062 30.0151 34.1687L29.2386 37.4968C29.0167 34.9453 28.2401 32.6156 26.9089 30.6187L27.0198 30.3968C28.3511 27.9562 30.5698 26.0703 33.2323 25.5156H33.3433C37.7808 24.4062 42.3292 26.4031 44.6589 30.3968C45.9901 32.5046 46.323 34.7234 46.1011 37.164Z" fill="black"/>
<path d="M27.1308 38.4953V45.0406H21.9167V38.4953C21.9167 35.0562 19.1433 32.1719 15.7042 32.1719C12.2651 32.1719 9.4917 35.0562 9.4917 38.4953V40.1594C9.4917 41.6015 8.38233 42.7109 6.94014 42.7109C6.27452 42.7109 5.60889 42.3781 5.0542 41.9344C4.61045 41.4906 4.27764 40.825 4.27764 40.1594V38.4953C4.38858 32.1719 9.4917 27.0687 15.7042 27.0687C22.0276 27.0687 27.1308 32.1719 27.1308 38.4953ZM27.5745 47.3703H3.83389C1.94795 47.3703 0.394829 48.9234 0.394829 50.8094V67.339C0.394829 69.225 1.94795 70.7781 3.83389 70.7781H27.5745C29.4604 70.7781 31.0136 69.225 31.0136 67.339V50.8094C31.0136 48.9234 29.4604 47.3703 27.5745 47.3703ZM18.3667 63.1234C18.4776 63.6781 18.1448 64.1219 17.5901 64.1219H14.0401C13.4855 64.1219 13.1526 63.6781 13.2636 63.1234L13.8183 60.5718C13.9292 60.35 13.8183 60.0172 13.5964 59.7953C12.8198 59.1297 12.3761 58.0203 12.487 56.8C12.7089 55.3578 13.9292 54.1375 15.3714 54.0265C17.4792 53.6937 19.2542 55.3578 19.2542 57.3547C19.2542 58.3531 18.8105 59.2406 18.1448 59.9062C17.923 60.1281 17.812 60.35 17.923 60.6828L18.3667 63.1234Z" fill="#FFC947"/>
<path d="M68.9542 37.6077C67.4011 37.6077 66.9573 36.3874 66.7355 35.0562C66.5136 33.2812 66.5136 31.5062 66.1808 29.7312C63.2964 14.4218 49.3183 3.54993 33.898 4.54837C24.2464 5.10305 15.7042 10.0952 10.3792 17.5281C9.15889 19.1921 8.16045 20.9671 7.38389 22.8531C6.49639 24.9609 5.83077 27.1796 5.38702 29.3984C3.39014 31.839 2.16983 35.0562 2.16983 38.4952V40.1593C2.16983 40.4921 2.16983 40.8249 2.28077 41.1577H1.72608C0.172953 40.9359 -0.15986 39.6046 0.0620154 38.2734C0.394828 35.8327 0.394828 34.9452 0.505765 34.0577C0.838578 26.514 3.39014 19.6359 8.16045 13.6452C17.2573 2.32962 31.7901 -2.4407 45.6573 1.77493C60.0792 6.21243 68.2886 16.4187 70.7292 31.1734C70.8401 32.0609 70.8401 34.6124 70.8401 34.9452C71.062 36.4984 70.6183 37.6077 68.9542 37.6077Z" fill="black"/>
<path d="M35.3398 48.7015C36.782 44.9296 37.5586 40.9358 37.8914 36.4983C37.8914 35.278 37.7805 33.7249 35.6727 33.7249C33.6758 33.614 33.4539 35.1671 33.4539 36.7202V36.9421C33.343 39.4937 32.8992 42.0452 32.2336 44.3749L31.457 46.5937C32.5664 47.5921 33.232 49.0343 33.232 50.6983V52.3624L35.3398 48.7015Z" fill="black"/>
</svg>
