<svg width="78" height="78" viewBox="0 0 78 78" fill="none" xmlns="http://www.w3.org/2000/svg">
<path d="M33.4687 45.0165C31.8514 45.0144 30.301 44.371 29.1573 43.2274C28.0137 42.0838 27.3703 40.5333 27.3682 38.916C27.3682 38.3939 27.5757 37.8931 27.9449 37.5239C28.3141 37.1547 28.8149 36.9473 29.337 36.9473C29.8591 36.9473 30.3599 37.1547 30.7291 37.5239C31.0983 37.8931 31.3057 38.3939 31.3057 38.916C31.3057 40.1078 32.277 41.079 33.4687 41.079C34.6605 41.079 35.6317 40.1078 35.6317 38.916V38.265C35.6329 37.7097 35.4478 37.17 35.1061 36.7323C34.7645 36.2945 34.2859 35.9839 33.747 35.85L32.2324 35.4694C30.8417 35.1228 29.6072 34.3206 28.7256 33.1907C27.844 32.0608 27.3662 30.6682 27.3682 29.235V28.584C27.3682 25.224 30.1061 22.4835 33.4687 22.4835C36.8314 22.4835 39.5692 25.2214 39.5692 28.584C39.5692 29.1062 39.3618 29.6069 38.9926 29.9761C38.6234 30.3453 38.1226 30.5528 37.6005 30.5528C37.0784 30.5528 36.5776 30.3453 36.2084 29.9761C35.8392 29.6069 35.6317 29.1062 35.6317 28.584C35.6317 27.3923 34.6605 26.421 33.4687 26.421C32.277 26.421 31.3057 27.3923 31.3057 28.584V29.235C31.3057 30.3821 32.0801 31.3744 33.1905 31.65L34.7051 32.0306C36.0957 32.3772 37.3303 33.1794 38.2119 34.3093C39.0935 35.4393 39.5713 36.8319 39.5692 38.265V38.916C39.5672 40.5333 38.9238 42.0838 37.7802 43.2274C36.6365 44.371 35.0861 45.0144 33.4687 45.0165Z" fill="black"/>
<path d="M33.4688 26.421C32.9466 26.421 32.4458 26.2136 32.0766 25.8444C31.7074 25.4752 31.5 24.9744 31.5 24.4523V21.0713C31.5 20.5491 31.7074 20.0484 32.0766 19.6792C32.4458 19.31 32.9466 19.1025 33.4688 19.1025C33.9909 19.1025 34.4917 19.31 34.8609 19.6792C35.2301 20.0484 35.4375 20.5491 35.4375 21.0713V24.4523C35.4375 24.9744 35.2301 25.4752 34.8609 25.8444C34.4917 26.2136 33.9909 26.421 33.4688 26.421ZM33.4688 48.3975C32.9466 48.3975 32.4458 48.1901 32.0766 47.8209C31.7074 47.4517 31.5 46.9509 31.5 46.4288V43.0478C31.5 42.5256 31.7074 42.0249 32.0766 41.6557C32.4458 41.2865 32.9466 41.079 33.4688 41.079C33.9909 41.079 34.4917 41.2865 34.8609 41.6557C35.2301 42.0249 35.4375 42.5256 35.4375 43.0478V46.4288C35.4375 46.9509 35.2301 47.4517 34.8609 47.8209C34.4917 48.1901 33.9909 48.3975 33.4688 48.3975Z" fill="black"/>
<path d="M33.4688 56.7188C20.8031 56.7188 10.5 46.4156 10.5 33.75C10.5 21.0844 20.8031 10.7812 33.4688 10.7812C46.1344 10.7812 56.4375 21.0844 56.4375 33.75C56.4375 36.2857 56.0123 38.8136 55.1775 41.2627C55.009 41.757 54.6511 42.1642 54.1824 42.3946C53.7138 42.6249 53.1728 42.6597 52.6785 42.4912C52.1842 42.3228 51.7771 41.9648 51.5467 41.4962C51.3163 41.0275 51.2815 40.4865 51.45 39.9923C52.1456 37.9526 52.5 35.8526 52.5 33.75C52.5 23.2552 43.9635 14.7188 33.4688 14.7188C22.974 14.7188 14.4375 23.2552 14.4375 33.75C14.4375 44.2448 22.974 52.7812 33.4688 52.7812C35.5688 52.7812 37.6688 52.4269 39.711 51.7313C39.9558 51.6478 40.2145 51.6134 40.4726 51.63C40.7306 51.6466 40.9829 51.7139 41.2149 51.8279C41.447 51.942 41.6543 52.1007 41.825 52.2949C41.9958 52.4891 42.1266 52.715 42.21 52.9598C42.2934 53.2045 42.3278 53.4633 42.3112 53.7213C42.2946 53.9794 42.2274 54.2316 42.1133 54.4637C41.9992 54.6957 41.8406 54.903 41.6464 55.0738C41.4522 55.2445 41.2262 55.3753 40.9815 55.4588C38.5636 56.2892 36.0253 56.7149 33.4688 56.7188Z" fill="black"/>
<path d="M33.4688 67.2188C15.015 67.2188 0 52.2038 0 33.75C0 15.2962 15.015 0.28125 33.4688 0.28125C51.9225 0.28125 66.9375 15.2962 66.9375 33.75C66.9375 37.2255 66.402 40.6537 65.3467 43.935C65.1866 44.4321 64.8356 44.8452 64.3709 45.0835C63.9062 45.3217 63.3658 45.3656 62.8688 45.2055C62.3717 45.0454 61.9586 44.6943 61.7203 44.2296C61.482 43.7649 61.4381 43.2246 61.5982 42.7275C62.5275 39.8348 63 36.816 63 33.75C63 17.4671 49.7516 4.21875 33.4688 4.21875C17.1859 4.21875 3.9375 17.4671 3.9375 33.75C3.9375 50.0329 17.1859 63.2812 33.4688 63.2812C36.5347 63.2812 39.5535 62.8088 42.4463 61.8795C42.9352 61.7476 43.4561 61.8089 43.9011 62.0507C44.3461 62.2926 44.6809 62.6963 44.8362 63.1784C44.9914 63.6604 44.9553 64.1837 44.7351 64.6398C44.515 65.0959 44.1278 65.4497 43.6537 65.628C40.3725 66.6833 36.9442 67.2188 33.4688 67.2188Z" fill="black"/>
<path d="M69.1425 77.7293C67.9691 77.7293 66.7931 77.2831 65.9006 76.3906L58.569 69.0563L54.6893 72.9387C54.4446 73.1824 54.1402 73.3576 53.8065 73.4467C53.4729 73.5358 53.1217 73.5357 52.7881 73.4464C52.4545 73.3571 52.1502 73.1817 51.9057 72.9378C51.6612 72.6939 51.485 72.3901 51.3949 72.0567L44.8219 47.5156C44.7319 47.1813 44.7316 46.8292 44.8211 46.4948C44.9106 46.1604 45.0866 45.8554 45.3316 45.6108C45.5765 45.3661 45.8816 45.1904 46.2161 45.1013C46.5506 45.0121 46.9027 45.0128 47.2369 45.1032L71.7754 51.6762C72.1093 51.7656 72.4137 51.9414 72.6581 52.1859C72.9025 52.4303 73.0782 52.7348 73.1676 53.0687C73.257 53.4026 73.2569 53.7541 73.1674 54.088C73.0778 54.4219 72.9019 54.7262 72.6574 54.9706L68.775 58.8503L76.1066 66.1793C77.8916 67.9696 77.8916 70.8833 76.1093 72.6709L72.3923 76.3879C71.4998 77.2804 70.3211 77.7267 69.1451 77.7267L69.1425 77.7293ZM58.569 64.3051C59.0914 64.3051 59.5928 64.5124 59.9603 64.8826L68.6805 73.6054C68.8051 73.7274 68.9726 73.7955 69.147 73.795C69.3213 73.7945 69.4885 73.7255 69.6124 73.6028L73.3241 69.8884C73.4459 69.7643 73.514 69.5972 73.5135 69.4233C73.513 69.2494 73.444 69.0826 73.3215 68.9592L64.5986 60.2416C64.4157 60.0587 64.2705 59.8416 64.1715 59.6027C64.0725 59.3638 64.0215 59.1076 64.0215 58.849C64.0215 58.5903 64.0725 58.3342 64.1715 58.0953C64.2705 57.8564 64.4157 57.6393 64.5986 57.4564L67.4599 54.5978L49.5075 49.7888L54.3165 67.7412L57.1778 64.8799C57.5466 64.5106 58.047 64.3055 58.569 64.3051Z" fill="#FFC947"/>
<path d="M58.569 64.3051C59.0914 64.3051 59.5928 64.5124 59.9603 64.8826L68.6805 73.6054C68.8051 73.7274 68.9726 73.7955 69.147 73.795C69.3213 73.7945 69.4885 73.7255 69.6124 73.6028L73.3241 69.8884C73.4459 69.7643 73.514 69.5972 73.5135 69.4233C73.513 69.2494 73.444 69.0826 73.3215 68.9592L64.5986 60.2416C64.4157 60.0587 64.2705 59.8416 64.1715 59.6027C64.0725 59.3638 64.0215 59.1076 64.0215 58.849C64.0215 58.5903 64.0725 58.3342 64.1715 58.0953C64.2705 57.8564 64.4157 57.6393 64.5986 57.4564L67.4599 54.5978L49.5075 49.7888L54.3165 67.7412L57.1778 64.8799C57.5466 64.5106 58.047 64.3055 58.569 64.3051Z" fill="#FFC947"/>
</svg>
