<svg width="74" height="66" viewBox="0 0 74 66" fill="none" xmlns="http://www.w3.org/2000/svg">
<g clip-path="url(#clip0_1_241)">
<path d="M16.4603 13.5405C18.2916 13.5405 20.1228 13.854 21.8552 14.4562C25.3975 5.9184 33.8893 0.133667 43.2654 0.133667C54.9508 0.133667 64.8 8.92827 66.243 20.3861C70.9331 22.6569 74 27.4625 74 32.7354C74 40.3056 67.8422 46.464 60.2724 46.464H55.2105V42.2406H60.2724C65.5129 42.2406 69.7765 37.977 69.7765 32.7354C69.7765 28.7705 67.2688 25.1881 63.5367 23.8212L62.2506 23.3498L62.1563 21.9829C61.4776 12.0995 53.1797 4.35714 43.2654 4.35714C34.9499 4.35714 27.4857 9.91928 25.1147 17.8843L24.384 20.3389L22.1119 19.1546C20.3444 18.232 18.4423 17.764 16.4601 17.764C9.71236 17.764 4.22333 23.2544 4.22333 30.0032C4.22333 36.7515 9.71236 42.2406 16.4601 42.2406H20.045V46.464H16.4601C7.38402 46.464 0 39.08 0 30.0032C0 20.9257 7.38401 13.5405 16.4603 13.5405Z" fill="#0E0D16"/>
<path d="M25.3442 25.26C26.6064 25.26 27.8684 25.4765 29.0623 25.8925C31.5037 19.9955 37.3562 16 43.8181 16C51.8715 16 58.6595 22.0744 59.654 29.9882C62.8864 31.5566 65 34.8758 65 38.5178C65 43.7464 60.7561 48 55.5391 48H22.0505V45.0829H55.5391C59.1508 45.0829 62.0892 42.1381 62.0892 38.5178C62.0892 35.7792 60.3609 33.3049 57.7888 32.3608L56.9024 32.0352L56.8375 31.0911C56.3697 24.2647 50.6508 18.9171 43.8181 18.9171C38.0871 18.9171 32.9428 22.7588 31.3088 28.2602L30.8052 29.9556L29.2393 29.1376C28.0211 28.5004 26.7102 28.1771 25.3441 28.1771C20.6936 28.1771 16.9107 31.9693 16.9107 36.6306C16.9107 41.2917 20.6936 45.0829 25.3441 45.0829H27.8148V48H25.3441C19.089 48 14 42.8999 14 36.6306C14 30.3609 19.089 25.26 25.3442 25.26Z" fill="#FFFEF6"/>
<path d="M27.8148 45.0829H25.3441C20.6936 45.0829 16.9107 41.2917 16.9107 36.6306C16.9107 31.9693 20.6936 28.1771 25.3441 28.1771C26.7102 28.1771 28.0211 28.5004 29.2393 29.1376L30.8052 29.9556L31.3088 28.2602C32.9428 22.7588 38.0871 18.9171 43.8181 18.9171C50.6508 18.9171 56.3697 24.2647 56.8375 31.0911L56.9024 32.0352L57.7888 32.3608C60.3609 33.3049 62.0892 35.7792 62.0892 38.5178C62.0892 42.1381 59.1508 45.0829 55.5391 45.0829H27.8148Z" fill="#FFFEF6"/>
<rect x="14" y="35" width="51" height="34" fill="#FFFEF6"/>
<path d="M33.3319 33H21.1606V51.5136H13L27.246 65.7608L41.4915 51.5136H33.3319V33Z" fill="#FFC947"/>
<path d="M45.1602 55.7609H57.3316V37.2472H65.4922L51.2462 23L37.0007 37.2472H45.1602V55.7609Z" fill="#FFC947"/>
</g>
<defs>
<clipPath id="clip0_1_241">
<rect width="74" height="66" fill="white"/>
</clipPath>
</defs>
</svg>
