<svg width="99" height="87" viewBox="0 0 99 87" fill="none" xmlns="http://www.w3.org/2000/svg">
<path d="M49.8203 19.9645L31.4453 26.6469V41.5C31.4453 58.2825 49.2767 62.8487 49.4559 62.8946L49.8203 62.9819L50.1848 62.8946C50.3639 62.8487 68.1953 58.2825 68.1953 41.5V26.6469L49.8203 19.9645ZM46.7578 49.7902L39.5502 42.5826L41.7154 40.4174L46.7578 45.4598L57.9252 34.2924L60.0904 36.4576L46.7578 49.7902Z" fill="#FFC947"/>
<circle cx="36.8203" cy="9.5" r="6" stroke="black" stroke-width="3"/>
<path d="M30.6919 12.452C23.9608 16.3419 18.6749 22.3017 15.6482 29.4134C12.6215 36.5251 12.0219 44.3944 13.9417 51.8094C15.8614 59.2244 20.1941 65.7738 26.2725 70.449C32.3509 75.1242 39.8379 77.6659 47.5804 77.6827" stroke="black" stroke-width="3"/>
<circle cx="61.6797" cy="76.9045" r="6" transform="rotate(-180 61.6797 76.9045)" stroke="black" stroke-width="3"/>
<path d="M67.8081 73.9525C74.5392 70.0626 79.8251 64.1029 82.8518 56.9911C85.8785 49.8794 86.4781 42.0101 84.5583 34.5951C82.6386 27.1802 78.3059 20.6308 72.2275 15.9556C66.1491 11.2804 58.6621 8.73865 50.9196 8.72186" stroke="black" stroke-width="3"/>
</svg>
